<svg xmlns="http://www.w3.org/2000/svg" viewBox="0 0 720 480" role="img" aria-label="Copy iPhone photos via USB on Windows File Explorer">
  <rect width="720" height="480" fill="#f3f3f3"/>
  <rect x="32" y="32" width="656" height="416" rx="8" fill="#fff" stroke="#ccc"/>
  <rect x="32" y="32" width="656" height="36" fill="#0078d4"/>
  <text x="56" y="56" font-family="Segoe UI,sans-serif" font-size="14" fill="#fff">File Explorer</text>
  <rect x="32" y="68" width="180" height="380" fill="#fafafa" stroke="#eee"/>
  <text x="48" y="100" font-family="Segoe UI,sans-serif" font-size="12" fill="#333">This PC</text>
  <text x="48" y="132" font-family="Segoe UI,sans-serif" font-size="12" font-weight="600" fill="#0078d4">Apple iPhone</text>
  <text x="48" y="160" font-family="Segoe UI,sans-serif" font-size="12" fill="#666">Internal Storage</text>
  <text x="48" y="188" font-family="Segoe UI,sans-serif" font-size="12" font-weight="600" fill="#0078d4">DCIM</text>
  <text x="48" y="216" font-family="Segoe UI,sans-serif" font-size="12" fill="#666">100APPLE</text>
  <rect x="220" y="68" width="468" height="380" fill="#fff"/>
  <text x="240" y="100" font-family="Segoe UI,sans-serif" font-size="13" fill="#888">100APPLE : IMG_0001.heic · IMG_0002.heic · &</text>
  <rect x="240" y="120" width="100" height="80" rx="4" fill="#eee" stroke="#ddd"/>
  <text x="290" y="168" text-anchor="middle" font-family="Segoe UI,sans-serif" font-size="10" fill="#888">.heic</text>
  <rect x="352" y="120" width="100" height="80" rx="4" fill="#eee" stroke="#ddd"/>
  <text x="402" y="168" text-anchor="middle" font-family="Segoe UI,sans-serif" font-size="10" fill="#888">.heic</text>
  <rect x="464" y="120" width="100" height="80" rx="4" fill="#eee" stroke="#ddd"/>
  <text x="514" y="168" text-anchor="middle" font-family="Segoe UI,sans-serif" font-size="10" fill="#888">.heic</text>
  <rect x="240" y="240" width="420" height="48" rx="6" fill="#fff8e6" stroke="#f0ad4e"/>
  <text x="450" y="270" text-anchor="middle" font-family="Segoe UI,sans-serif" font-size="12" fill="#856404">Copied files may still be HEIC  convert to JPG before email or print</text>
  <rect x="240" y="320" width="200" height="40" rx="6" fill="#50e3c2"/>
  <text x="340" y="345" text-anchor="middle" font-family="Segoe UI,sans-serif" font-size="13" font-weight="600" fill="#fff">Open HEIC to JPG ’</text>
</svg>
